<?xml version="1.0" encoding="UTF-8" standalone="no"?>
<!-- Created with Inkscape (http://www.inkscape.org/) -->
<svg
   xmlns:dc="http://purl.org/dc/elements/1.1/"
   xmlns:cc="http://web.resource.org/cc/"
   xmlns:rdf="http://www.w3.org/1999/02/22-rdf-syntax-ns#"
   xmlns:svg="http://www.w3.org/2000/svg"
   xmlns="http://www.w3.org/2000/svg"
   xmlns:sodipodi="http://sodipodi.sourceforge.net/DTD/sodipodi-0.dtd"
   xmlns:inkscape="http://www.inkscape.org/namespaces/inkscape"
   width="744.09448"
   height="524.40942"
   id="svg2"
   sodipodi:version="0.32"
   inkscape:version="0.45"
   version="1.0"
   sodipodi:docbase="/susehome/hom/fthv/hi/fnd2/linuxlab/latexsample/figures"
   sodipodi:docname="fontys-page-screen.svg"
   inkscape:output_extension="org.inkscape.output.svg.inkscape"
   sodipodi:modified="true">
  <defs
     id="defs4">
    <marker
       orient="auto"
       markerHeight="3"
       markerWidth="4"
       markerUnits="strokeWidth"
       refY="5"
       refX="10"
       viewBox="0 0 10 10"
       id="ArrowStart">
      <path
         id="path1333"
         d="M 10,0 L 0,5 L 10,10 L 10,0 z " />
    </marker>
    <marker
       orient="auto"
       markerHeight="3"
       markerWidth="4"
       markerUnits="strokeWidth"
       refY="5"
       refX="0"
       viewBox="0 0 10 10"
       id="ArrowEnd">
      <path
         id="path1330"
         d="M 0,0 L 10,5 L 0,10 L 0,0 z " />
    </marker>
    <marker
       orient="auto"
       markerHeight="3"
       markerWidth="4"
       markerUnits="strokeWidth"
       refY="5"
       refX="10"
       viewBox="0 0 10 10"
       id="marker2324">
      <path
         id="path2326"
         d="M 10,0 L 0,5 L 10,10 L 10,0 z " />
    </marker>
    <marker
       orient="auto"
       markerHeight="3"
       markerWidth="4"
       markerUnits="strokeWidth"
       refY="5"
       refX="0"
       viewBox="0 0 10 10"
       id="marker2320">
      <path
         id="path2322"
         d="M 0,0 L 10,5 L 0,10 L 0,0 z " />
    </marker>
  </defs>
  <sodipodi:namedview
     id="base"
     pagecolor="#ffffff"
     bordercolor="#666666"
     borderopacity="1.0"
     gridtolerance="10000"
     guidetolerance="10"
     objecttolerance="10"
     inkscape:pageopacity="0.0"
     inkscape:pageshadow="2"
     inkscape:zoom="1.7257508"
     inkscape:cx="372.04724"
     inkscape:cy="262.20471"
     inkscape:document-units="mm"
     inkscape:current-layer="layer1"
     width="744.09449px"
     height="524.40945px"
     units="mm"
     showguides="true"
     inkscape:guide-bbox="true"
     gridspacingx="5mm"
     gridspacingy="5mm"
     gridanglex="8.4666669mm"
     gridanglez="8.4666669mm"
     grid_units="mm"
     showgrid="true"
     inkscape:window-width="1912"
     inkscape:window-height="1118"
     inkscape:window-x="0"
     inkscape:window-y="2"
     borderlayer="true"
     inkscape:object-paths="false"
     inkscape:grid-bbox="false">
    <sodipodi:guide
       orientation="horizontal"
       position="2979.9211"
       id="guide2242" />
    <sodipodi:guide
       orientation="horizontal"
       position="385.24947"
       id="guide2395" />
    <sodipodi:guide
       orientation="horizontal"
       position="2562.1015"
       id="guide2397" />
    <sodipodi:guide
       orientation="vertical"
       position="0"
       id="guide2481" />
    <sodipodi:guide
       orientation="vertical"
       position="2100.7621"
       id="guide2483" />
    <sodipodi:guide
       orientation="horizontal"
       position="2505.7679"
       id="guide2485" />
    <sodipodi:guide
       orientation="horizontal"
       position="0"
       id="guide35962" />
    <sodipodi:guide
       orientation="vertical"
       position="623.18358"
       id="guide2224" />
  </sodipodi:namedview>
  <metadata
     id="metadata7">
    <rdf:RDF>
      <cc:Work
         rdf:about="">
        <dc:format>image/svg+xml</dc:format>
        <dc:type
           rdf:resource="http://purl.org/dc/dcmitype/StillImage" />
      </cc:Work>
    </rdf:RDF>
  </metadata>
  <g
     inkscape:label="Layer 1"
     inkscape:groupmode="layer"
     id="layer1">
    <g
       id="g2238"
       transform="matrix(0.7779111,0,0,0.7779111,-18.149356,-87.059496)">
      <path
         style="fill:#64307b;fill-opacity:1;fill-rule:evenodd;stroke:none"
         d="M -757.468,1669.4407 L -757.468,1669.4407 L -757.468,1669.4407 z "
         id="path1337" />
      <path
         sodipodi:nodetypes="csccsczcccc"
         id="path2213"
         d="M 0.019312348,290.80373 C 0.019312348,290.80373 42.178508,272.36886 126.96616,248.30946 C 247.44088,214.1235 259.33201,219.89059 259.33201,219.89059 C 237.22256,236.60471 230.57031,240.79205 175.71557,288.73283 C 223.51768,271.83568 302.98257,256.16423 397.60728,239.75833 C 491.47103,223.48434 595.91529,222.56649 595.91529,222.56649 C 595.91529,222.56649 698.60233,222.41284 799.65249,243.07501 C 900.54624,263.70524 1000.022,290.80373 1000.022,290.80373 L 1000.0027,0 L 0,0 L 0.019312348,290.80373 z "
         style="fill:#663366;fill-opacity:1;fill-rule:evenodd;stroke:none;stroke-width:1px;stroke-linecap:butt;stroke-linejoin:miter;stroke-opacity:1" />
    </g>
    <path
       style="fill:#663366;fill-opacity:1;fill-rule:evenodd;stroke:none"
       d="M 322.39954,980.09149 L 322.39954,980.09149 L 322.39954,980.09149 z "
       id="path2329" />
    <g
       id="g2259"
       transform="translate(-51.779076,-2.6298841)">
      <path
         id="path1351"
         d="M 662.09309,452.13526 L 661.87136,454.28042 L 664.05262,454.28042 L 662.89366,465.29371 L 660.76913,465.29371 L 660.54739,467.43887 L 668.99268,467.43887 L 669.21312,465.29371 L 667.89431,465.29371 L 668.90115,455.69076 C 669.99435,454.99075 670.98185,454.63764 671.79144,454.63764 C 672.9852,454.63764 673.43899,455.33766 673.27269,456.95942 L 672.39606,465.29887 L 671.2023,465.29887 L 670.98185,467.44403 L 679.3356,467.44403 L 679.55734,465.29887 L 677.46246,465.29887 L 678.36358,456.67709 C 678.69102,453.5456 677.27037,451.71757 674.55669,451.71757 C 672.94008,451.71757 671.03213,452.45239 669.09323,453.82676 L 669.26856,452.14041 L 662.09309,452.14041"
         style="fill:#663366;fill-opacity:1;fill-rule:evenodd;stroke:none" />
      <path
         id="path1353"
         d="M 723.64015,457.98172 C 721.339,456.47083 721.08762,456.1885 721.18301,455.27191 C 721.25392,454.5719 722.08414,454.00841 722.97108,454.00841 C 724.30536,454.00841 725.23226,454.88503 725.49912,456.36512 L 726.7973,456.36512 L 727.27171,451.86324 L 725.72472,451.86324 L 725.65511,452.56326 C 724.82876,452.07467 723.80645,451.79247 722.60754,451.79247 C 719.44523,451.79247 716.94297,453.79698 716.66064,456.50564 C 716.52528,457.80511 716.97778,459.14455 717.97043,460.09195 C 718.38812,460.44402 718.99789,461.00339 719.90932,461.74336 C 720.23161,462.02569 720.5539,462.26689 720.81045,462.47831 C 721.9939,463.28404 722.26591,463.67207 722.18985,464.41205 C 722.11508,465.14803 721.2681,465.81724 720.39276,465.81724 C 718.77615,465.81724 717.56692,464.58867 717.30522,462.7257 L 715.93613,462.7257 L 715.40629,467.79094 L 716.72639,467.79094 L 717.24463,466.91547 C 718.13157,467.47381 719.32018,467.85669 720.83494,467.85669 C 724.24477,467.85669 726.86821,465.82742 727.14538,463.14855 C 727.35164,461.17884 726.5008,459.91031 723.64531,457.97657"
         style="fill:#663366;fill-opacity:1;fill-rule:evenodd;stroke:none" />
      <path
         id="path1355"
         d="M 691.46144,447.42609 L 686.2094,449.99525 L 685.96317,452.09014 L 683.52022,452.09014 L 683.28817,454.19933 L 683.19277,454.27023 L 685.66538,454.27023 L 684.83516,462.52343 C 684.52189,465.68175 686.11916,467.65042 689.24151,467.65042 C 691.34542,467.65042 692.3226,467.38859 693.83349,466.56237 C 693.9392,466.50178 694.02945,466.43204 694.10551,466.34579 L 693.74325,464.54857 C 692.14212,465.51544 691.4666,465.34914 690.53969,464.76515 L 690.54485,464.76515 C 689.97633,464.36693 689.88093,463.37028 690.04207,461.78346 L 690.79752,454.28557 L 694.88674,454.28557 L 695.10203,452.15073 L 691.0141,452.15073 L 691.46144,447.44156"
         style="fill:#663366;fill-opacity:1;fill-rule:evenodd;stroke:none" />
      <path
         id="path1357"
         d="M 708.78001,454.28042 L 710.49717,454.28042 L 706.34737,461.76915 L 704.39816,454.28042 L 706.1411,454.28042 L 706.36284,452.13526 L 697.72676,452.13526 L 697.50502,454.28042 L 699.54447,454.28042 L 702.89757,466.87435 L 697.53467,476.06477 L 701.9307,476.06477 L 712.56627,454.28042 L 714.35434,454.28042 L 714.57607,452.13526 L 709.00174,452.13526 L 708.78001,454.28042"
         style="fill:#663366;fill-opacity:1;fill-rule:evenodd;stroke:none" />
      <path
         id="path1359"
         d="M 628.57495,435.16992 C 628.57495,435.16992 638.02191,432.43561 645.69112,432.63156 C 653.75868,432.8328 661.37761,435.51683 662.91945,435.97048 C 663.98687,436.28246 665.20513,436.11629 665.49777,435.08883 C 665.63828,434.58077 665.71821,433.39217 663.73033,431.63904 C 658.01419,426.62408 651.18552,424.87095 651.18552,424.87095 C 640.83743,414.08964 631.82749,412.63934 631.82749,412.63934 C 634.8596,415.87771 636.33053,424.47892 635.25795,424.84117 C 618.14564,430.08302 613.24039,440.47739 613.24039,440.47739 C 614.49474,439.43459 619.828,434.50484 631.86875,432.46539 C 630.16061,433.84995 628.57495,435.17907 628.57495,435.17907"
         style="fill:#663366;fill-opacity:1;fill-rule:evenodd;stroke:none" />
      <path
         id="path1361"
         d="M 640.9483,414.45191 C 646.37695,417.16687 651.10945,423.83949 651.10945,423.83949 C 649.76099,417.26742 640.6157,404.90438 640.75621,405.88672 C 641.39564,410.30853 640.9483,414.45191 640.9483,414.45191"
         style="fill:#663366;fill-opacity:1;fill-rule:evenodd;stroke:none" />
      <path
         id="path1363"
         d="M 625.46291,446.37413 L 625.23602,448.66097 L 627.41728,448.66097 L 626.66183,456.22963 L 626.69148,456.29022 L 626.62058,456.25941 C 623.86178,456.02736 621.33374,455.47418 619.01712,454.60786 C 616.24284,453.52497 613.18109,451.6816 612.3947,448.98726 C 611.4085,445.21634 613.92622,442.30541 615.713,440.91054 L 615.66272,444.16838 C 616.62057,441.05635 619.01712,438.20086 619.01712,438.20086 C 613.06507,441.47919 611.24219,444.67231 610.56152,446.97346 C 610.28435,448.00608 610.33076,448.83127 610.43131,449.73355 C 610.80904,451.81812 612.06726,453.30852 613.57299,454.55243 C 617.00732,457.2919 621.39433,458.68161 626.30345,459.33135 L 626.37951,459.31085 L 626.34857,459.37144 L 625.76973,465.17781 L 623.66454,465.17781 L 623.43893,467.46349 L 633.02126,467.46349 L 633.24815,465.17781 L 631.09267,465.17781 L 631.6367,459.6731 L 631.60189,459.5982 L 631.68698,459.63314 C 633.58591,459.65364 636.40014,459.5982 636.40014,459.5982 L 636.85393,454.58737 L 635.56992,454.58737 L 634.96531,456.32503 C 633.84245,456.43074 632.3264,456.41024 632.01442,456.40508 L 631.92418,456.44621 L 631.97962,456.3548 L 632.03505,455.74104 L 632.73893,448.66097 L 638.26943,448.66097 L 637.99226,451.4404 L 640.34884,451.4404 L 640.85677,446.36897 L 625.46807,446.36897"
         style="fill:#663366;fill-opacity:1;fill-rule:evenodd;stroke:none" />
      <path
         id="path1365"
         d="M 650.46101,451.71241 C 655.56221,451.71241 658.79929,455.05533 658.30554,459.76966 C 658.07994,461.94976 657.06795,463.84856 655.33016,465.36461 C 653.4712,466.98006 651.46268,467.68523 648.71806,467.68523 C 643.65167,467.68523 640.31274,464.3115 640.79231,459.73369 C 641.27961,455.05533 645.29406,451.71241 650.46488,451.71241 L 650.46101,451.71241 z M 646.40144,459.8394 C 645.9786,463.8835 646.81913,465.89317 648.85858,465.89317 C 651.00374,465.89317 652.26841,463.92346 652.69641,459.8394 C 653.1141,455.83141 652.24778,453.75186 650.20833,453.75186 C 648.02836,453.75186 646.84491,455.64963 646.40144,459.8394"
         style="fill:#663366;fill-opacity:1;fill-rule:evenodd;stroke:none" />
      <g
         transform="translate(-0.72847,0)"
         id="g2246">
        <path
           style="fill:#663366;fill-opacity:1;fill-rule:evenodd;stroke:none"
           d="M 628.24234,486.80089 L 625.89607,486.80089 L 625.89607,483.95172 L 623.91205,483.95172 L 623.91205,491.40435 L 625.89607,491.40435 L 625.89607,488.21123 L 628.24234,488.21123 L 628.24234,491.40435 L 630.22636,491.40435 L 630.22636,483.95172 L 628.24234,483.95172 L 628.24234,486.80089"
           id="path1339" />
        <path
           style="fill:#663366;fill-opacity:1;fill-rule:evenodd;stroke:none"
           d="M 653.82958,487.37572 C 653.82958,487.06774 654.29755,486.99284 654.71523,486.99284 C 655.19351,486.99284 655.80328,487.11918 656.20679,487.36541 L 656.35247,486.03629 C 655.73238,485.79405 655.06331,485.71915 654.3981,485.71915 C 653.29071,485.71915 652.0312,486.2374 652.0312,487.52153 C 652.0312,489.5312 654.76035,488.86612 654.76035,489.80321 C 654.76035,490.18493 654.37876,490.25068 653.98557,490.25068 C 653.29587,490.25068 652.63066,490.06491 652.18204,489.8678 L 652.07632,491.26267 C 652.64098,491.44444 653.23012,491.52553 654.09128,491.52553 C 655.35079,491.52553 656.68507,491.15696 656.68507,489.67185 C 656.68507,487.55633 653.82442,488.2472 653.82442,487.38088"
           id="path1341" />
        <path
           style="fill:#663366;fill-opacity:1;fill-rule:evenodd;stroke:none"
           d="M 660.92512,490.12034 C 660.09361,490.12034 659.34847,489.54551 659.34847,488.65973 C 659.34847,487.70317 659.9879,487.12318 660.8194,487.12318 C 661.27706,487.12318 661.63029,487.21974 661.98223,487.43116 L 662.11888,486.02095 C 661.68572,485.80939 661.17135,485.714 660.59251,485.714 C 658.75933,485.714 657.3593,486.78142 657.3593,488.62892 C 657.3593,490.4621 658.75417,491.52952 660.59251,491.52952 C 661.10044,491.52952 661.68056,491.44947 662.15884,491.28832 L 662.11888,489.85864 C 661.80046,490.02894 661.36343,490.12034 660.92512,490.12034"
           id="path1343" />
        <path
           style="fill:#663366;fill-opacity:1;fill-rule:evenodd;stroke:none"
           d="M 666.7663,485.70884 C 665.93479,485.70884 665.32631,486.08141 664.90862,486.65521 L 664.88799,486.65521 L 664.88799,483.39222 L 662.96972,483.39222 L 662.96972,491.39919 L 664.88799,491.39919 L 664.88799,489.05292 C 664.88799,487.85916 665.29021,487.31513 666.08175,487.31513 C 666.6,487.31513 666.96741,487.66205 666.96741,488.71 L 666.96741,491.39919 L 668.88697,491.39919 L 668.88697,487.9289 C 668.88697,486.77626 668.27719,485.70884 666.76114,485.70884"
           id="path1345" />
        <path
           style="fill:#663366;fill-opacity:1;fill-rule:evenodd;stroke:none"
           d="M 677.43152,491.40435 L 679.35107,491.40435 L 679.35107,483.39738 L 677.43152,483.39738 L 677.43152,491.40435 z "
           id="path1347" />
        <path
           style="fill:#663366;fill-opacity:1;fill-rule:evenodd;stroke:none"
           d="M 691.09403,485.70884 C 690.2174,485.70884 689.45293,486.05575 689.07005,486.86148 L 689.04942,486.86148 L 689.04942,485.83917 L 687.30261,485.83917 L 687.30261,491.40435 L 689.22088,491.40435 L 689.22088,489.05692 C 689.22088,487.86431 689.6231,487.32029 690.41464,487.32029 C 690.93288,487.32029 691.30029,487.6672 691.30029,488.71516 L 691.30029,491.40435 L 693.21985,491.40435 L 693.21985,487.93406 C 693.21985,486.78142 692.61008,485.714 691.09919,485.714"
           id="path1349" />
        <path
           style="fill:#663366;fill-opacity:1;fill-rule:evenodd;stroke:none"
           d="M 642.79566,485.83917 L 642.79566,486.84201 L 642.77633,486.84201 C 642.37282,486.16146 641.7089,485.714 640.88771,485.714 C 639.16023,485.714 638.379,486.95288 638.379,488.60429 C 638.379,490.24552 639.32654,491.39919 640.85677,491.39919 C 641.62253,491.39919 642.26711,491.10152 642.72605,490.45295 L 642.74539,490.45295 L 642.74539,490.74945 C 642.74539,491.8375 642.15108,492.3609 641.03854,492.3609 C 640.23797,492.3609 639.74938,492.18957 639.16023,491.90209 L 639.06484,493.41814 C 639.51218,493.57929 640.26762,493.76609 641.18937,493.76609 C 643.42993,493.76609 644.54376,493.03127 644.54376,490.74443 L 644.54376,485.83402 L 642.80598,485.83402 L 642.79566,485.83917 z M 641.45107,489.92839 C 640.8774,489.92839 640.36431,489.4398 640.36431,488.57348 C 640.36431,487.81919 640.73688,487.18892 641.45107,487.18892 C 642.31223,487.18892 642.67577,487.87862 642.67577,488.49858 C 642.67577,489.34956 642.13175,489.92839 641.45107,489.92839"
           id="path1367" />
        <path
           style="fill:#663366;fill-opacity:1;fill-rule:evenodd;stroke:none"
           d="M 651.29123,488.83118 C 651.29123,487.17861 650.54609,485.714 648.48602,485.714 C 646.75854,485.714 645.51063,486.78142 645.51063,488.61461 C 645.51063,490.45295 646.90551,491.52952 648.74385,491.52952 C 649.45804,491.52952 650.16321,491.42897 650.7833,491.17758 L 650.7833,489.82268 C 650.20833,490.13066 649.60887,490.24552 649.08547,490.24552 C 648.14954,490.24552 647.5604,489.94889 647.45469,489.18325 L 651.29638,489.18325 L 651.29638,488.83634 L 651.29123,488.83118 z M 647.42375,488.09005 C 647.46371,487.45578 647.79631,486.93238 648.49117,486.93238 C 649.25693,486.93238 649.55344,487.45062 649.55344,488.09005 L 647.41859,488.09005"
           id="path1369" />
        <path
           style="fill:#663366;fill-opacity:1;fill-rule:evenodd;stroke:none"
           d="M 673.05095,485.70884 C 671.21777,485.70884 669.81774,486.77626 669.81774,488.62492 C 669.81774,490.45694 671.21261,491.52553 673.05095,491.52553 C 674.88414,491.52553 676.28416,490.4621 676.28416,488.62492 C 676.28416,486.78142 674.88929,485.70884 673.05095,485.70884 z M 673.05095,490.18493 C 672.16401,490.18493 671.80176,489.45011 671.80176,488.62892 C 671.80176,487.79857 672.16401,487.06375 673.05095,487.06375 C 673.93789,487.06375 674.30015,487.79857 674.30015,488.62892 C 674.30015,489.45011 673.94176,490.18493 673.05095,490.18493"
           id="path1371" />
        <path
           style="fill:#663366;fill-opacity:1;fill-rule:evenodd;stroke:none"
           d="M 686.29449,488.83118 C 686.29449,487.17861 685.54935,485.714 683.49057,485.714 C 681.76309,485.714 680.5139,486.78142 680.5139,488.61461 C 680.5139,490.45295 681.90877,491.52952 683.74711,491.52952 C 684.46259,491.52952 685.16647,491.42897 685.7814,491.17758 L 685.7814,489.82268 C 685.20773,490.13066 684.60827,490.24552 684.08487,490.24552 C 683.14765,490.24552 682.5585,489.94889 682.45279,489.18325 L 686.29449,489.18325 L 686.29449,488.83634 L 686.29449,488.83118 z M 682.42701,488.09005 C 682.46826,487.45578 682.79958,486.93238 683.49572,486.93238 C 684.26019,486.93238 684.55799,487.45062 684.55799,488.09005 L 682.42314,488.09005"
           id="path1373" />
        <path
           style="fill:#663366;fill-opacity:1;fill-rule:evenodd;stroke:none"
           d="M 634.48187,485.70884 C 632.64869,485.70884 631.24866,486.77626 631.24866,488.62492 C 631.24866,490.45694 632.64353,491.52553 634.48187,491.52553 C 636.31506,491.52553 637.71509,490.4621 637.71509,488.62492 C 637.71509,486.78142 636.32022,485.70884 634.48187,485.70884 z M 634.48187,490.18493 C 633.60009,490.18493 633.23268,489.45011 633.23268,488.62892 C 633.23268,487.79857 633.59622,487.06375 634.48187,487.06375 C 635.36882,487.06375 635.73107,487.79857 635.73107,488.62892 C 635.73107,489.45011 635.37268,490.18493 634.48187,490.18493"
           id="path1375" />
      </g>
      <text
         sodipodi:linespacing="100%"
         id="text32977"
         y="502.22662"
         x="623.14539"
         style="font-size:7.82125425px;font-style:normal;font-variant:normal;font-weight:bold;font-stretch:normal;text-align:start;line-height:100%;writing-mode:lr-tb;text-anchor:start;fill:#663366;fill-opacity:1;stroke:none;stroke-width:1px;stroke-linecap:butt;stroke-linejoin:miter;stroke-opacity:1;font-family:Bitstream Vera Sans"
         xml:space="preserve"><tspan
           y="502.22662"
           x="623.14539"
           id="tspan32979"
           sodipodi:role="line">Fontys Hogeschool voor </tspan><tspan
           id="tspan33974"
           y="510.04788"
           x="623.14539"
           sodipodi:role="line">Techniek en Bedrijfsmanagement</tspan></text>
    </g>
  </g>
</svg>
