<?xml version="1.0" encoding="UTF-8" standalone="no"?>
<!-- Created with Inkscape (http://www.inkscape.org/) -->
<svg
   xmlns:dc="http://purl.org/dc/elements/1.1/"
   xmlns:cc="http://web.resource.org/cc/"
   xmlns:rdf="http://www.w3.org/1999/02/22-rdf-syntax-ns#"
   xmlns:svg="http://www.w3.org/2000/svg"
   xmlns="http://www.w3.org/2000/svg"
   xmlns:sodipodi="http://sodipodi.sourceforge.net/DTD/sodipodi-0.dtd"
   xmlns:inkscape="http://www.inkscape.org/namespaces/inkscape"
   width="2104.7244"
   height="2979.9211"
   id="svg2"
   sodipodi:version="0.32"
   inkscape:version="0.45"
   version="1.0"
   sodipodi:docbase="/susehome/hom/fthv/hi/fnd2/linuxlab/latexsample/figures"
   sodipodi:docname="fontys-page.svg"
   inkscape:output_extension="org.inkscape.output.svg.inkscape"
   sodipodi:modified="true">
  <defs
     id="defs4">
    <marker
       orient="auto"
       markerHeight="3"
       markerWidth="4"
       markerUnits="strokeWidth"
       refY="5"
       refX="10"
       viewBox="0 0 10 10"
       id="ArrowStart">
      <path
         id="path1333"
         d="M 10,0 L 0,5 L 10,10 L 10,0 z " />
    </marker>
    <marker
       orient="auto"
       markerHeight="3"
       markerWidth="4"
       markerUnits="strokeWidth"
       refY="5"
       refX="0"
       viewBox="0 0 10 10"
       id="ArrowEnd">
      <path
         id="path1330"
         d="M 0,0 L 10,5 L 0,10 L 0,0 z " />
    </marker>
    <marker
       orient="auto"
       markerHeight="3"
       markerWidth="4"
       markerUnits="strokeWidth"
       refY="5"
       refX="10"
       viewBox="0 0 10 10"
       id="marker2324">
      <path
         id="path2326"
         d="M 10,0 L 0,5 L 10,10 L 10,0 z " />
    </marker>
    <marker
       orient="auto"
       markerHeight="3"
       markerWidth="4"
       markerUnits="strokeWidth"
       refY="5"
       refX="0"
       viewBox="0 0 10 10"
       id="marker2320">
      <path
         id="path2322"
         d="M 0,0 L 10,5 L 0,10 L 0,0 z " />
    </marker>
  </defs>
  <sodipodi:namedview
     id="base"
     pagecolor="#ffffff"
     bordercolor="#666666"
     borderopacity="1.0"
     gridtolerance="10000"
     guidetolerance="10"
     objecttolerance="10"
     inkscape:pageopacity="0.0"
     inkscape:pageshadow="2"
     inkscape:zoom="1.918969"
     inkscape:cx="1789.8043"
     inkscape:cy="221.68598"
     inkscape:document-units="mm"
     inkscape:current-layer="layer1"
     width="594.00001mm"
     height="841.00002mm"
     units="mm"
     showguides="true"
     inkscape:guide-bbox="true"
     gridspacingx="5mm"
     gridspacingy="5mm"
     gridanglex="8.4666669mm"
     gridanglez="8.4666669mm"
     grid_units="mm"
     showgrid="true"
     inkscape:window-width="1912"
     inkscape:window-height="1118"
     inkscape:window-x="0"
     inkscape:window-y="2"
     borderlayer="true"
     inkscape:object-paths="false"
     inkscape:grid-bbox="false">
    <sodipodi:guide
       orientation="horizontal"
       position="2979.9211"
       id="guide2242" />
    <sodipodi:guide
       orientation="horizontal"
       position="385.24947"
       id="guide2395" />
    <sodipodi:guide
       orientation="horizontal"
       position="2562.1015"
       id="guide2397" />
    <sodipodi:guide
       orientation="vertical"
       position="0"
       id="guide2481" />
    <sodipodi:guide
       orientation="vertical"
       position="2100.7621"
       id="guide2483" />
    <sodipodi:guide
       orientation="horizontal"
       position="2505.7679"
       id="guide2485" />
    <sodipodi:guide
       orientation="horizontal"
       position="0"
       id="guide35962" />
    <sodipodi:guide
       orientation="vertical"
       position="1585.5809"
       id="guide2250" />
  </sodipodi:namedview>
  <metadata
     id="metadata7">
    <rdf:RDF>
      <cc:Work
         rdf:about="">
        <dc:format>image/svg+xml</dc:format>
        <dc:type
           rdf:resource="http://purl.org/dc/dcmitype/StillImage" />
      </cc:Work>
    </rdf:RDF>
  </metadata>
  <g
     inkscape:label="Layer 1"
     inkscape:groupmode="layer"
     id="layer1">
    <g
       id="g2238"
       transform="matrix(2.1509495,0,0,2.1509495,-19.124254,-148.99988)">
      <path
         style="fill:#64307b;fill-opacity:1;fill-rule:evenodd;stroke:none"
         d="M -757.468,1669.4407 L -757.468,1669.4407 L -757.468,1669.4407 z "
         id="path1337" />
      <path
         sodipodi:nodetypes="csccsczcccc"
         id="path2213"
         d="M 0.019312348,290.80373 C 0.019312348,290.80373 42.178508,272.36886 126.96616,248.30946 C 247.44088,214.1235 259.33201,219.89059 259.33201,219.89059 C 237.22256,236.60471 230.57031,240.79205 175.71557,288.73283 C 223.51768,271.83568 302.98257,256.16423 397.60728,239.75833 C 491.47103,223.48434 595.91529,222.56649 595.91529,222.56649 C 595.91529,222.56649 698.60233,222.41284 799.65249,243.07501 C 900.54624,263.70524 1000.022,290.80373 1000.022,290.80373 L 1000.0027,0 L 0,0 L 0.019312348,290.80373 z "
         style="fill:#663366;fill-opacity:1;fill-rule:evenodd;stroke:none;stroke-width:1px;stroke-linecap:butt;stroke-linejoin:miter;stroke-opacity:1" />
    </g>
    <path
       style="fill:#663366;fill-opacity:1;fill-rule:evenodd;stroke:none"
       d="M 662.19908,4377.2824 L 662.19908,4377.2824 L 662.19908,4377.2824 z "
       id="path2329" />
    <g
       id="g2309">
      <path
         id="path1351"
         d="M 1704.5697,2757.2162 L 1703.8893,2763.7987 L 1710.5826,2763.7987 L 1707.0263,2797.5937 L 1700.507,2797.5937 L 1699.8266,2804.1763 L 1725.7415,2804.1763 L 1726.4179,2797.5937 L 1722.3711,2797.5937 L 1725.4606,2768.1265 C 1728.8152,2765.9784 1731.8454,2764.8949 1734.3296,2764.8949 C 1737.9928,2764.8949 1739.3852,2767.043 1738.8749,2772.0194 L 1736.1849,2797.6095 L 1732.5218,2797.6095 L 1731.8454,2804.1921 L 1757.4794,2804.1921 L 1758.1598,2797.6095 L 1751.7315,2797.6095 L 1754.4966,2771.1531 C 1755.5014,2761.5439 1751.1421,2755.9345 1742.815,2755.9345 C 1737.8543,2755.9345 1731.9996,2758.1893 1726.05,2762.4067 L 1726.588,2757.232 L 1704.5697,2757.232"
         style="fill:#663366;fill-opacity:1;fill-rule:evenodd;stroke:none" />
      <path
         id="path1353"
         d="M 1893.4306,2775.1564 C 1886.3694,2770.5202 1885.598,2769.6538 1885.8907,2766.8412 C 1886.1083,2764.6932 1888.6559,2762.9641 1891.3775,2762.9641 C 1895.4718,2762.9641 1898.3161,2765.6541 1899.135,2770.1958 L 1903.1185,2770.1958 L 1904.5743,2756.3815 L 1899.8272,2756.3815 L 1899.6136,2758.5295 C 1897.0779,2757.0303 1893.9409,2756.1643 1890.262,2756.1643 C 1880.5582,2756.1643 1872.8799,2762.3153 1872.0135,2770.627 C 1871.5982,2774.6145 1872.9867,2778.7246 1876.0327,2781.6318 C 1877.3144,2782.7121 1879.1855,2784.4286 1881.9823,2786.6993 C 1882.9713,2787.5656 1883.9603,2788.3057 1884.7475,2788.9545 C 1888.379,2791.4269 1889.2136,2792.6176 1888.9803,2794.8883 C 1888.7508,2797.1467 1886.1518,2799.2002 1883.4658,2799.2002 C 1878.5051,2799.2002 1874.7945,2795.4302 1873.9915,2789.7136 L 1869.7903,2789.7136 L 1868.1645,2805.2566 L 1872.2153,2805.2566 L 1873.8056,2802.5702 C 1876.5272,2804.2835 1880.1745,2805.4584 1884.8226,2805.4584 C 1895.2859,2805.4584 1903.3361,2799.2314 1904.1866,2791.0111 C 1904.8195,2784.967 1902.2087,2781.0744 1893.4464,2775.1406"
         style="fill:#663366;fill-opacity:1;fill-rule:evenodd;stroke:none" />
      <path
         id="path1355"
         d="M 1794.6882,2742.7658 L 1778.572,2750.6495 L 1777.8165,2757.0777 L 1770.3201,2757.0777 L 1769.6081,2763.5499 L 1769.3153,2763.7675 L 1776.9027,2763.7675 L 1774.3551,2789.093 C 1773.3938,2798.7844 1778.2951,2804.8254 1787.8762,2804.8254 C 1794.3322,2804.8254 1797.3308,2804.022 1801.967,2801.4867 C 1802.2914,2801.3008 1802.5683,2801.0867 1802.8017,2800.8221 L 1801.6901,2795.3072 C 1796.7769,2798.2741 1794.7041,2797.7638 1791.8598,2795.9718 L 1791.8756,2795.9718 C 1790.1311,2794.7498 1789.8383,2791.6916 1790.3328,2786.8223 L 1792.651,2763.8146 L 1805.199,2763.8146 L 1805.8596,2757.2637 L 1793.3156,2757.2637 L 1794.6882,2742.8133"
         style="fill:#663366;fill-opacity:1;fill-rule:evenodd;stroke:none" />
      <path
         id="path1357"
         d="M 1847.8313,2763.7987 L 1853.1006,2763.7987 L 1840.3666,2786.7784 L 1834.3854,2763.7987 L 1839.7337,2763.7987 L 1840.4141,2757.2162 L 1813.9137,2757.2162 L 1813.2333,2763.7987 L 1819.4915,2763.7987 L 1829.7807,2802.444 L 1813.3243,2830.6454 L 1826.8138,2830.6454 L 1859.4497,2763.7987 L 1864.9365,2763.7987 L 1865.6169,2757.2162 L 1848.5117,2757.2162 L 1847.8313,2763.7987"
         style="fill:#663366;fill-opacity:1;fill-rule:evenodd;stroke:none" />
      <path
         id="path1359"
         d="M 1601.7172,2705.157 C 1601.7172,2705.157 1630.7057,2696.7666 1654.2392,2697.3679 C 1678.995,2697.9854 1702.3742,2706.2215 1707.1054,2707.6136 C 1710.3808,2708.5709 1714.1191,2708.061 1715.0171,2704.9082 C 1715.4483,2703.3492 1715.6936,2699.7019 1709.5936,2694.3223 C 1692.0533,2678.9336 1671.0991,2673.554 1671.0991,2673.554 C 1639.3454,2640.4709 1611.6978,2636.0205 1611.6978,2636.0205 C 1621.002,2645.9577 1625.5156,2672.351 1622.2244,2673.4626 C 1569.7142,2689.5475 1554.6621,2721.4433 1554.6621,2721.4433 C 1558.5112,2718.2434 1574.8766,2703.1162 1611.8244,2696.858 C 1606.5829,2701.1066 1601.7172,2705.1851 1601.7172,2705.1851"
         style="fill:#663366;fill-opacity:1;fill-rule:evenodd;stroke:none" />
      <path
         id="path1361"
         d="M 1639.6856,2641.5825 C 1656.3437,2649.9135 1670.8657,2670.3889 1670.8657,2670.3889 C 1666.7279,2650.2221 1638.6649,2612.2854 1639.0961,2615.2997 C 1641.0582,2628.8683 1639.6856,2641.5825 1639.6856,2641.5825"
         style="fill:#663366;fill-opacity:1;fill-rule:evenodd;stroke:none" />
      <path
         id="path1363"
         d="M 1592.1677,2739.5378 L 1591.4715,2746.5551 L 1598.1648,2746.5551 L 1595.8467,2769.78 L 1595.9376,2769.9659 L 1595.7201,2769.8714 C 1587.2545,2769.1593 1579.4971,2767.4619 1572.3884,2764.8035 C 1563.8753,2761.4806 1554.4802,2755.8241 1552.0671,2747.5564 C 1549.0409,2735.9851 1556.7667,2727.0527 1562.2495,2722.7725 L 1562.0952,2732.7693 C 1565.0344,2723.2199 1572.3884,2714.4576 1572.3884,2714.4576 C 1554.1241,2724.5174 1548.5305,2734.3157 1546.4418,2741.3769 C 1545.5913,2744.5456 1545.7338,2747.0777 1546.0423,2749.8464 C 1547.2014,2756.243 1551.0623,2760.8164 1555.6828,2764.6334 C 1566.2212,2773.0397 1579.683,2777.3041 1594.7469,2779.2978 L 1594.9803,2779.2349 L 1594.8854,2779.4209 L 1593.1092,2797.2381 L 1586.6493,2797.2381 L 1585.957,2804.2518 L 1615.3609,2804.2518 L 1616.0572,2797.2381 L 1609.443,2797.2381 L 1611.1123,2780.3465 L 1611.0055,2780.1167 L 1611.2666,2780.2239 C 1617.0936,2780.2868 1625.7293,2780.1167 1625.7293,2780.1167 L 1627.1217,2764.7406 L 1623.1817,2764.7406 L 1621.3264,2770.0728 C 1617.8808,2770.3971 1613.2287,2770.3342 1612.2714,2770.3184 L 1611.9945,2770.4446 L 1612.1646,2770.1641 L 1612.3347,2768.2807 L 1614.4946,2746.5551 L 1631.4653,2746.5551 L 1630.6148,2755.084 L 1637.8461,2755.084 L 1639.4047,2739.522 L 1592.1835,2739.522"
         style="fill:#663366;fill-opacity:1;fill-rule:evenodd;stroke:none" />
      <path
         id="path1365"
         d="M 1668.8759,2755.9187 C 1684.5293,2755.9187 1694.4624,2766.1766 1692.9473,2780.6428 C 1692.2551,2787.3326 1689.1497,2793.1592 1683.8172,2797.8113 C 1678.1128,2802.7684 1671.9496,2804.9322 1663.5276,2804.9322 C 1647.981,2804.9322 1637.7353,2794.5797 1639.2069,2780.5325 C 1640.7022,2766.1766 1653.0208,2755.9187 1668.8878,2755.9187 L 1668.8759,2755.9187 z M 1656.4189,2780.8568 C 1655.1213,2793.2664 1657.7006,2799.4332 1663.9587,2799.4332 C 1670.5413,2799.4332 1674.422,2793.389 1675.7354,2780.8568 C 1677.0171,2768.5581 1674.3587,2762.1768 1668.1005,2762.1768 C 1661.4112,2762.1768 1657.7797,2768.0003 1656.4189,2780.8568"
         style="fill:#663366;fill-opacity:1;fill-rule:evenodd;stroke:none" />
      <g
         transform="translate(-1.8279,0)"
         id="g2296">
        <path
           style="fill:#663366;fill-opacity:1;fill-rule:evenodd;stroke:none"
           d="M 1600.6965,2863.5898 L 1593.4969,2863.5898 L 1593.4969,2854.847 L 1587.4088,2854.847 L 1587.4088,2877.7158 L 1593.4969,2877.7158 L 1593.4969,2867.9175 L 1600.6965,2867.9175 L 1600.6965,2877.7158 L 1606.7846,2877.7158 L 1606.7846,2854.847 L 1600.6965,2854.847 L 1600.6965,2863.5898"
           id="path1339" />
        <path
           style="fill:#663366;fill-opacity:1;fill-rule:evenodd;stroke:none"
           d="M 1679.2126,2865.3537 C 1679.2126,2864.4087 1680.6485,2864.1788 1681.9302,2864.1788 C 1683.3979,2864.1788 1685.269,2864.5665 1686.5072,2865.3221 L 1686.9542,2861.2436 C 1685.0514,2860.5003 1682.9983,2860.2704 1680.9571,2860.2704 C 1677.559,2860.2704 1673.6941,2861.8607 1673.6941,2865.8011 C 1673.6941,2871.9679 1682.0687,2869.9271 1682.0687,2872.8026 C 1682.0687,2873.974 1680.8978,2874.1757 1679.6912,2874.1757 C 1677.5748,2874.1757 1675.5336,2873.6057 1674.157,2873.0008 L 1673.8326,2877.2811 C 1675.5653,2877.8388 1677.3731,2878.0877 1680.0156,2878.0877 C 1683.8805,2878.0877 1687.9748,2876.9567 1687.9748,2872.3995 C 1687.9748,2865.9079 1679.1967,2868.0279 1679.1967,2865.3696"
           id="path1341" />
        <path
           style="fill:#663366;fill-opacity:1;fill-rule:evenodd;stroke:none"
           d="M 1700.9857,2873.7758 C 1698.4341,2873.7758 1696.1476,2872.0118 1696.1476,2869.2938 C 1696.1476,2866.3585 1698.1097,2864.5788 1700.6613,2864.5788 C 1702.0656,2864.5788 1703.1495,2864.8751 1704.2295,2865.5238 L 1704.6488,2861.1965 C 1703.3196,2860.5474 1701.7412,2860.2546 1699.965,2860.2546 C 1694.3398,2860.2546 1690.0437,2863.5301 1690.0437,2869.1992 C 1690.0437,2874.8245 1694.324,2878.0999 1699.965,2878.0999 C 1701.5236,2878.0999 1703.3038,2877.8543 1704.7714,2877.3598 L 1704.6488,2872.9727 C 1703.6717,2873.4953 1702.3306,2873.7758 1700.9857,2873.7758"
           id="path1343" />
        <path
           style="fill:#663366;fill-opacity:1;fill-rule:evenodd;stroke:none"
           d="M 1718.9097,2860.2388 C 1716.3581,2860.2388 1714.491,2861.382 1713.2093,2863.1428 L 1713.146,2863.1428 L 1713.146,2853.1301 L 1707.2597,2853.1301 L 1707.2597,2877.7 L 1713.146,2877.7 L 1713.146,2870.5003 C 1713.146,2866.8372 1714.3802,2865.1678 1716.8091,2865.1678 C 1718.3994,2865.1678 1719.5268,2866.2323 1719.5268,2869.4481 L 1719.5268,2877.7 L 1725.4171,2877.7 L 1725.4171,2867.0512 C 1725.4171,2863.5143 1723.546,2860.2388 1718.8939,2860.2388"
           id="path1345" />
        <path
           style="fill:#663366;fill-opacity:1;fill-rule:evenodd;stroke:none"
           d="M 1751.6366,2877.7158 L 1757.5268,2877.7158 L 1757.5268,2853.1459 L 1751.6366,2853.1459 L 1751.6366,2877.7158 z "
           id="path1347" />
        <path
           style="fill:#663366;fill-opacity:1;fill-rule:evenodd;stroke:none"
           d="M 1793.5608,2860.2388 C 1790.8708,2860.2388 1788.525,2861.3033 1787.3501,2863.7757 L 1787.2868,2863.7757 L 1787.2868,2860.6387 L 1781.9266,2860.6387 L 1781.9266,2877.7158 L 1787.8129,2877.7158 L 1787.8129,2870.5126 C 1787.8129,2866.853 1789.0472,2865.1836 1791.4761,2865.1836 C 1793.0663,2865.1836 1794.1938,2866.2482 1794.1938,2869.4639 L 1794.1938,2877.7158 L 1800.084,2877.7158 L 1800.084,2867.067 C 1800.084,2863.5301 1798.2129,2860.2546 1793.5766,2860.2546"
           id="path1349" />
        <path
           style="fill:#663366;fill-opacity:1;fill-rule:evenodd;stroke:none"
           d="M 1645.3543,2860.6387 L 1645.3543,2863.716 L 1645.295,2863.716 C 1644.0568,2861.6277 1642.0195,2860.2546 1639.4996,2860.2546 C 1634.1988,2860.2546 1631.8015,2864.0562 1631.8015,2869.1237 C 1631.8015,2874.1599 1634.7091,2877.7 1639.4047,2877.7 C 1641.7545,2877.7 1643.7324,2876.7866 1645.1407,2874.7964 L 1645.2,2874.7964 L 1645.2,2875.7062 C 1645.2,2879.045 1643.3764,2880.6511 1639.9625,2880.6511 C 1637.5059,2880.6511 1636.0066,2880.1253 1634.1988,2879.2432 L 1633.906,2883.8953 C 1635.2787,2884.3898 1637.5969,2884.963 1640.4253,2884.963 C 1647.3006,2884.963 1650.7185,2882.7081 1650.7185,2875.6908 L 1650.7185,2860.6229 L 1645.386,2860.6229 L 1645.3543,2860.6387 z M 1641.2283,2873.1867 C 1639.468,2873.1867 1637.8936,2871.6875 1637.8936,2869.0291 C 1637.8936,2866.7145 1639.0368,2864.7805 1641.2283,2864.7805 C 1643.8709,2864.7805 1644.9864,2866.8969 1644.9864,2868.7993 C 1644.9864,2871.4106 1643.317,2873.1867 1641.2283,2873.1867"
           id="path1367" />
        <path
           style="fill:#663366;fill-opacity:1;fill-rule:evenodd;stroke:none"
           d="M 1671.4235,2869.8199 C 1671.4235,2864.7489 1669.137,2860.2546 1662.8155,2860.2546 C 1657.5146,2860.2546 1653.6854,2863.5301 1653.6854,2869.1553 C 1653.6854,2874.7964 1657.9656,2878.0999 1663.6067,2878.0999 C 1665.7982,2878.0999 1667.9621,2877.7914 1669.8649,2877.02 L 1669.8649,2872.8624 C 1668.1005,2873.8074 1666.2611,2874.1599 1664.655,2874.1599 C 1661.783,2874.1599 1659.9752,2873.2496 1659.6508,2870.9003 L 1671.4393,2870.9003 L 1671.4393,2869.8357 L 1671.4235,2869.8199 z M 1659.5559,2867.5457 C 1659.6785,2865.5994 1660.6991,2863.9933 1662.8313,2863.9933 C 1665.1811,2863.9933 1666.091,2865.5836 1666.091,2867.5457 L 1659.54,2867.5457"
           id="path1369" />
        <path
           style="fill:#663366;fill-opacity:1;fill-rule:evenodd;stroke:none"
           d="M 1738.1945,2860.2388 C 1732.5693,2860.2388 1728.2732,2863.5143 1728.2732,2869.187 C 1728.2732,2874.8086 1732.5535,2878.0877 1738.1945,2878.0877 C 1743.8198,2878.0877 1748.1158,2874.8245 1748.1158,2869.187 C 1748.1158,2863.5301 1743.8356,2860.2388 1738.1945,2860.2388 z M 1738.1945,2873.974 C 1735.4729,2873.974 1734.3613,2871.7191 1734.3613,2869.1992 C 1734.3613,2866.6513 1735.4729,2864.3964 1738.1945,2864.3964 C 1740.9162,2864.3964 1742.0278,2866.6513 1742.0278,2869.1992 C 1742.0278,2871.7191 1740.928,2873.974 1738.1945,2873.974"
           id="path1371" />
        <path
           style="fill:#663366;fill-opacity:1;fill-rule:evenodd;stroke:none"
           d="M 1778.8331,2869.8199 C 1778.8331,2864.7489 1776.5466,2860.2546 1770.2291,2860.2546 C 1764.9283,2860.2546 1761.095,2863.5301 1761.095,2869.1553 C 1761.095,2874.7964 1765.3753,2878.0999 1771.0163,2878.0999 C 1773.2118,2878.0999 1775.3717,2877.7914 1777.2587,2877.02 L 1777.2587,2872.8624 C 1775.4983,2873.8074 1773.6589,2874.1599 1772.0528,2874.1599 C 1769.1769,2874.1599 1767.369,2873.2496 1767.0447,2870.9003 L 1778.8331,2870.9003 L 1778.8331,2869.8357 L 1778.8331,2869.8199 z M 1766.9655,2867.5457 C 1767.0921,2865.5994 1768.1088,2863.9933 1770.2449,2863.9933 C 1772.5908,2863.9933 1773.5046,2865.5836 1773.5046,2867.5457 L 1766.9537,2867.5457"
           id="path1373" />
        <path
           style="fill:#663366;fill-opacity:1;fill-rule:evenodd;stroke:none"
           d="M 1619.8429,2860.2388 C 1614.2177,2860.2388 1609.9216,2863.5143 1609.9216,2869.187 C 1609.9216,2874.8086 1614.2019,2878.0877 1619.8429,2878.0877 C 1625.4682,2878.0877 1629.7642,2874.8245 1629.7642,2869.187 C 1629.7642,2863.5301 1625.484,2860.2388 1619.8429,2860.2388 z M 1619.8429,2873.974 C 1617.1371,2873.974 1616.0097,2871.7191 1616.0097,2869.1992 C 1616.0097,2866.6513 1617.1253,2864.3964 1619.8429,2864.3964 C 1622.5646,2864.3964 1623.6762,2866.6513 1623.6762,2869.1992 C 1623.6762,2871.7191 1622.5764,2873.974 1619.8429,2873.974"
           id="path1375" />
      </g>
      <text
         sodipodi:linespacing="100%"
         id="text32977"
         y="2919.7959"
         x="1585.4637"
         style="font-size:24px;font-style:normal;font-variant:normal;font-weight:bold;font-stretch:normal;text-align:start;line-height:100%;writing-mode:lr-tb;text-anchor:start;fill:#663366;fill-opacity:1;stroke:none;stroke-width:1px;stroke-linecap:butt;stroke-linejoin:miter;stroke-opacity:1;font-family:Bitstream Vera Sans"
         xml:space="preserve"><tspan
           y="2919.7959"
           x="1585.4637"
           id="tspan32979"
           sodipodi:role="line">Fontys Hogeschool voor </tspan><tspan
           id="tspan33974"
           y="2943.7959"
           x="1585.4637"
           sodipodi:role="line">Techniek en Bedrijfsmanagement</tspan></text>
    </g>
  </g>
</svg>
